<svg xmlns="http://www.w3.org/2000/svg" width="45" height="34" viewBox="0 0 45 34" fill="none">
<path d="M0.0167774 7.07179L7.56674 9.79817V11.5514L1.52677 9.31161V30.0405L7.58352 32.2551V34L0 31.282L0.0167774 7.07179Z" fill="#000000"/>
<path d="M44.4525 26.9282L36.9109 24.2018V22.4486L42.9425 24.6884V3.95954L36.8858 1.74488V0L44.4777 2.71799L44.4525 26.9282Z" fill="#000000"/>
<path d="M4.32866 16.3415L5.22626 16.0311L5.17593 17.9857L5.61215 17.8347L5.67087 15.4606L3.90083 16.073L3.85049 18.4471L4.27833 18.2961L4.32866 16.3415Z" fill="#000000"/>
<path d="M5.82186 17.7592C5.85541 17.7592 5.94769 17.7592 6.04835 17.7256C6.24969 17.6501 6.61041 17.4152 6.65235 16.6015L6.71946 15.511L7.30668 15.3096L7.25635 17.2642L7.69257 17.1132L7.75129 14.7476L6.3168 15.2425L6.2413 16.6099C6.20774 17.2223 6.08191 17.323 5.96447 17.3649C5.93091 17.3733 5.87219 17.3901 5.83024 17.3901H5.79669L5.7883 17.7676H5.82186C5.81347 17.7592 5.82186 17.7592 5.82186 17.7592Z" fill="#000000"/>
<path d="M8.47274 16.2324L9.26129 15.964L9.44585 16.5093L9.89884 16.3499L9.12707 14.2694L8.69085 14.4204L7.79324 17.0797L8.24624 16.9203L8.47274 16.2324ZM8.59857 15.8214L8.90057 14.8902L9.15224 15.6284L8.59857 15.8214Z" fill="#000000"/>
<path d="M10.226 16.2324L10.6538 16.0814L10.7042 14.1268L11.3753 13.9003L11.3837 13.4809L9.61361 14.0933L9.60522 14.5127L10.2763 14.2778L10.226 16.2324Z" fill="#000000"/>
<path d="M11.5431 15.2174C11.7024 15.3348 11.9457 15.36 12.2058 15.2845L12.1974 15.5445L12.6336 15.3935L12.642 15.1335C13.095 14.9573 13.5564 14.5127 13.5732 13.8919C13.5815 13.6319 13.506 13.4306 13.355 13.3131C13.1957 13.1957 12.9608 13.1705 12.6923 13.2376L12.7007 13.0111L12.2561 13.1789L12.2477 13.4054C11.7947 13.5899 11.3333 14.0429 11.3166 14.6553C11.3166 14.9154 11.3921 15.1083 11.5431 15.2174ZM11.7528 14.5295C11.7612 14.2107 11.9206 13.9842 12.2393 13.8248L12.2142 14.8734C12.038 14.907 11.9206 14.8986 11.8451 14.8399C11.7779 14.7812 11.7528 14.6805 11.7528 14.5295ZM13.0279 13.7074C13.1034 13.7661 13.1369 13.8752 13.1285 14.0262C13.1202 14.3282 12.9692 14.5463 12.642 14.714L12.6672 13.6654C12.8349 13.6403 12.9524 13.6487 13.0279 13.7074Z" fill="#000000"/>
<path d="M14.0178 14.6721C14.1268 14.7476 14.2527 14.7895 14.3953 14.7895C14.4959 14.7895 14.6134 14.7728 14.7308 14.7308C15.3432 14.5127 15.771 13.8835 15.7878 13.1453C15.7962 12.7594 15.6871 12.4658 15.4774 12.3148C15.2929 12.1806 15.0496 12.1638 14.7728 12.2561C14.152 12.4742 13.7242 13.1118 13.7074 13.8416C13.699 14.2191 13.8164 14.5211 14.0178 14.6721ZM14.1436 13.7074C14.152 13.1957 14.4037 12.7846 14.7811 12.6588C14.9321 12.6084 15.0664 12.6168 15.167 12.6839C15.3013 12.7762 15.3684 12.9859 15.36 13.2712C15.3516 13.7829 15.0999 14.2023 14.7308 14.3282C14.5714 14.3785 14.4456 14.3785 14.3449 14.303C14.2107 14.2023 14.1352 13.9926 14.1436 13.7074Z" fill="#000000"/>
<path d="M16.5009 13.1789L17.0713 12.9775C17.5075 12.8265 17.776 12.449 17.7927 11.996C17.8011 11.7779 17.7424 11.6186 17.625 11.5263C17.4907 11.434 17.2894 11.4256 17.0378 11.5179L16.1066 11.8451L16.0479 14.2107L16.4841 14.0597L16.5009 13.1789ZM17.3733 12.1303C17.3649 12.3652 17.2391 12.5329 16.9874 12.6168L16.5176 12.7762L16.5344 12.0883L16.9958 11.9289C17.1468 11.8786 17.2475 11.8702 17.3062 11.9205C17.3481 11.9625 17.3733 12.0296 17.3733 12.1303Z" fill="#000000"/>
<path d="M18.4555 11.7696L18.9672 13.204L19.3111 13.0782L19.8816 11.2998L19.8396 12.902L20.2507 12.7594L20.3094 10.3854L19.739 10.5867L19.1517 12.4994L18.6316 10.9642L18.0612 11.1656L18.0025 13.5312L18.4219 13.3886L18.4555 11.7696Z" fill="#000000"/>
<path d="M21.0476 11.8786L21.8362 11.6102L22.0207 12.1554L22.4737 11.9961L21.7019 9.91562L21.2657 10.0666L20.3681 12.7259L20.8211 12.5665L21.0476 11.8786ZM21.1651 11.4676L21.4671 10.5364L21.7187 11.2746L21.1651 11.4676Z" fill="#000000"/>
<path d="M4.05181 21.5006C3.95953 21.5342 3.89242 21.5426 3.8337 21.5258L3.79175 21.509L3.78336 21.9201H3.80853C3.82531 21.9201 3.85048 21.9201 3.87564 21.9201C3.93436 21.9201 4.00147 21.9117 4.06859 21.8865C4.33703 21.7942 4.52158 21.5677 4.69775 21.1399L5.58697 18.9588L5.1088 19.1266L4.58031 20.4856L4.12731 19.4705L3.65753 19.6299L4.35381 21.056C4.25314 21.3077 4.17764 21.4587 4.05181 21.5006Z" fill="#000000"/>
<path d="M6.07352 21.1483L6.09869 20.1165L6.9963 19.7977L6.97113 20.8379L7.40735 20.6869L7.46607 18.3129L7.02985 18.4638L7.00468 19.3782L6.10708 19.697L6.13224 18.7826L5.69602 18.9252L5.64569 21.2993L6.07352 21.1483Z" fill="#000000"/>
<path d="M9.15223 18.4387L9.11028 20.0997L9.53812 19.9487L9.59684 17.5746L9.11867 17.7424L8.22946 19.697L8.26301 18.036L7.83518 18.187L7.77646 20.5611L8.26301 20.3933L9.15223 18.4387Z" fill="#000000"/>
<path d="M11.7276 18.489C11.736 18.3296 11.6941 18.2038 11.6102 18.1283C11.5598 18.078 11.4843 18.0444 11.4004 18.036C11.5598 17.885 11.6605 17.6753 11.6605 17.4824C11.6689 17.3146 11.6186 17.1887 11.5179 17.1132C11.3921 17.021 11.1991 17.021 10.9558 17.1049L9.97434 17.4404L9.91562 19.8145L11.0313 19.4286C11.434 19.286 11.7192 18.9085 11.7276 18.489ZM10.3686 18.2625L10.3854 17.6921L10.8803 17.5243C10.9978 17.4824 11.1152 17.4488 11.1823 17.4991C11.2159 17.5243 11.2411 17.583 11.2327 17.6753C11.2243 17.885 11.1068 18.0109 10.83 18.1031L10.3686 18.2625ZM10.3434 19.2776L10.3602 18.6232L10.8887 18.4387C11.0062 18.3967 11.1572 18.3548 11.2327 18.4135C11.2746 18.4471 11.2998 18.5142 11.2998 18.6149C11.2914 18.8497 11.1572 19.0007 10.8552 19.1014L10.3434 19.2776Z" fill="#000000"/>
<path d="M13.6151 16.5847L13.6235 16.1821L12.0464 16.7274L11.9877 19.093L13.5816 18.5393L13.5983 18.1283L12.4323 18.531L12.4407 17.927L13.5061 17.5579L13.5228 17.1636L12.4574 17.5327L12.4658 16.9874L13.6151 16.5847Z" fill="#000000"/>
<path d="M14.8567 15.7543L13.9255 16.0814L13.8668 18.4471L14.303 18.2961L14.3198 17.4069L14.8902 17.2055C15.3264 17.0545 15.5949 16.677 15.6117 16.224C15.62 16.0059 15.5613 15.8465 15.4439 15.7543C15.3097 15.6704 15.1083 15.6704 14.8567 15.7543ZM15.1838 16.3666C15.1754 16.6015 15.0496 16.7693 14.7979 16.8532L14.3282 17.0126L14.3449 16.3247L14.8063 16.1653C14.9573 16.115 15.058 16.1066 15.1167 16.1569C15.167 16.1989 15.1838 16.266 15.1838 16.3666Z" fill="#000000"/>
<path d="M16.8113 15.4271C16.9455 15.3767 17.0545 15.3851 17.1384 15.4355C17.2139 15.4774 17.2559 15.5613 17.2726 15.6704L17.281 15.7039L17.7089 15.5529V15.5277C17.6837 15.3012 17.5914 15.1335 17.4488 15.0412C17.2894 14.9405 17.0629 14.9321 16.8113 15.016C16.2073 15.2257 15.7794 15.8717 15.7626 16.5931C15.7543 16.9958 15.8549 17.281 16.0646 17.4404C16.1653 17.5159 16.2911 17.5495 16.4254 17.5495C16.526 17.5495 16.6351 17.5327 16.7525 17.4907C17.281 17.3062 17.6585 16.8029 17.7089 16.2156L17.7172 16.1653L17.281 16.3163V16.3331C17.2475 16.6015 17.1216 16.9539 16.7525 17.0797C16.6015 17.13 16.4841 17.1216 16.3918 17.0545C16.266 16.9622 16.1905 16.7441 16.1989 16.4589C16.1989 16.0898 16.375 15.5865 16.8113 15.4271Z" fill="#000000"/>
<path d="M19.3111 14.9154L19.2776 16.568L19.7054 16.4254L19.7641 14.0513L19.2776 14.2191L18.3883 16.1737L18.4303 14.5127L18.0025 14.6637L17.9437 17.0377L18.4219 16.87L19.3111 14.9154Z" fill="#000000"/>
<path d="M20.9805 15.9808L21.0308 14.0262L21.7019 13.7913L21.7103 13.3718L19.9403 13.9926L19.9319 14.4037L20.603 14.1772L20.5527 16.1318L20.9805 15.9808Z" fill="#000000"/>
<path d="M23.4552 13.1789L23.4636 12.7678L21.8865 13.3131L21.8278 15.6871L23.4217 15.1335L23.4301 14.7224L22.2724 15.1251L22.2808 14.5127L23.3462 14.1436L23.3629 13.7493L22.2892 14.1184L22.306 13.5732L23.4552 13.1789Z" fill="#000000"/>
<path d="M24.1683 14.8734L24.5961 14.7224L24.6464 12.7678L25.3175 12.5413L25.3259 12.1219L23.5559 12.7343L23.5391 13.1537L24.2102 12.9188L24.1683 14.8734Z" fill="#000000"/>
<path d="M25.6279 14.1352C25.7286 14.2107 25.8544 14.2443 25.9887 14.2443C26.0893 14.2443 26.1984 14.2275 26.3158 14.1855C26.8443 14.001 27.2218 13.506 27.2721 12.9104V12.8601L26.8359 13.0111V13.0279C26.8024 13.2963 26.6765 13.6487 26.3074 13.7745C26.1564 13.8248 26.039 13.8164 25.9383 13.7493C25.8125 13.657 25.737 13.4389 25.7454 13.1537C25.7538 12.7678 25.9215 12.2561 26.3661 12.1051C26.5004 12.0548 26.6094 12.0632 26.6933 12.1135C26.7688 12.1554 26.8108 12.2393 26.8275 12.3484L26.8359 12.3819L27.2638 12.2309V12.2058C27.2386 11.9793 27.1463 11.8115 27.0037 11.7192C26.8443 11.6186 26.6178 11.6102 26.3661 11.6941C25.7622 11.9038 25.3343 12.5497 25.3175 13.2712C25.3092 13.6906 25.4182 13.9842 25.6279 14.1352Z" fill="#000000"/>
<path d="M27.9768 12.7762L28.2536 12.3819L28.8996 13.2292L29.4197 13.053L28.5472 11.9625L29.4532 10.6874L28.8912 10.8887L27.9852 12.1806L28.0104 11.1907L27.5825 11.3417L27.5238 13.7074L27.9516 13.5648L27.9768 12.7762Z" fill="#000000"/>
<path d="M29.7133 12.7007C29.8224 12.7762 29.9482 12.8182 30.0908 12.8182C30.1915 12.8182 30.3089 12.8014 30.4264 12.7594C31.0387 12.5413 31.4666 11.9122 31.4834 11.174C31.4917 10.7881 31.3827 10.4945 31.173 10.3435C30.9884 10.2092 30.7451 10.1925 30.4683 10.2847C29.8475 10.5028 29.4197 11.1404 29.4029 11.8702C29.3945 12.2561 29.5036 12.5497 29.7133 12.7007ZM29.8391 11.736C29.8475 11.2243 30.0992 10.8132 30.4767 10.679C30.6277 10.6287 30.7619 10.6371 30.8626 10.7042C30.9968 10.7965 31.0639 11.0062 31.0555 11.2914C31.0471 11.8031 30.7955 12.2226 30.4264 12.3484C30.267 12.4071 30.1411 12.3987 30.0405 12.3232C29.9062 12.2393 29.8307 12.0212 29.8391 11.736Z" fill="#000000"/>
<path d="M32.2132 10.1505L33.2702 9.7814L33.2786 9.37035L31.7937 9.88207L31.735 12.2477L32.1628 12.1051L32.2132 10.1505Z" fill="#000000"/>
<path d="M33.6225 11.3501C33.7316 11.4256 33.8574 11.4676 34 11.4676C34.1007 11.4676 34.2181 11.4508 34.3356 11.4088C34.948 11.1991 35.3758 10.5616 35.3926 9.82335C35.4009 9.43746 35.2919 9.14385 35.0822 8.99285C34.8976 8.85863 34.6543 8.84185 34.3775 8.93413C33.7567 9.15224 33.3289 9.78979 33.3121 10.5196C33.3037 10.9055 33.4128 11.1991 33.6225 11.3501ZM33.7483 10.3854C33.7567 9.87368 34.0084 9.46263 34.3859 9.3368C34.453 9.31163 34.5117 9.30324 34.5705 9.30324C34.646 9.30324 34.7131 9.32002 34.7718 9.36196C34.906 9.45424 34.9731 9.66396 34.9647 9.94918C34.9563 10.4609 34.7047 10.8803 34.3356 11.0062C34.1762 11.0565 34.0503 11.0565 33.9497 10.981C33.8071 10.8803 33.74 10.6706 33.7483 10.3854Z" fill="#000000"/>
<path d="M4.32027 25.2336L4.7481 25.0826L4.79843 23.128L5.46954 22.9015L5.47793 22.4821L3.72466 23.0861L3.70788 23.0945L3.69949 23.5139L4.3706 23.279L4.32027 25.2336Z" fill="#000000"/>
<path d="M8.75797 21.3496L8.25464 22.2976L7.81842 21.6684L7.31509 21.8446L7.99458 22.7338L7.19764 24.227L7.20603 23.8243L6.03998 24.227L6.05676 23.6146L7.12214 23.2455L7.13053 22.8512L6.06515 23.2203L6.08192 22.6751L7.2312 22.2808L7.23959 21.8697L5.65409 22.415L5.60376 24.789L7.18925 24.2354V24.2438L7.70097 24.0592L8.23786 23.0358L8.72441 23.7069L9.23613 23.5307L8.5063 22.5744L9.2613 21.1734L8.75797 21.3496Z" fill="#000000"/>
<path d="M11.132 22.868L11.1907 20.5023L10.7545 20.6534L10.7377 21.5677L9.83173 21.8781L9.8569 20.9637L9.42068 21.1147L9.37035 23.4804L9.79818 23.3294L9.82334 22.2976L10.7209 21.9872L10.6958 23.019L11.132 22.868Z" fill="#000000"/>
<path d="M11.7276 22.415C11.8367 22.4905 11.9625 22.5324 12.1051 22.5324C12.2058 22.5324 12.3232 22.5157 12.4407 22.4737C13.0614 22.264 13.4809 21.6264 13.4977 20.8882C13.5061 20.5023 13.397 20.2087 13.1873 20.0577C13.0027 19.9235 12.7594 19.9067 12.4826 19.999C11.8618 20.2171 11.434 20.8547 11.4172 21.5845C11.4088 21.9704 11.5179 22.264 11.7276 22.415ZM11.8534 21.4503C11.8618 20.9386 12.1135 20.5275 12.491 20.4017C12.5581 20.3765 12.6168 20.3681 12.6756 20.3681C12.7511 20.3681 12.8182 20.3849 12.8769 20.4268C13.0111 20.5191 13.0782 20.7288 13.0698 21.0141C13.0614 21.5258 12.8098 21.9452 12.4407 22.0711C12.2813 22.1214 12.1554 22.113 12.0548 22.0459C11.9122 21.9452 11.8451 21.7355 11.8534 21.4503Z" fill="#000000"/>
<path d="M14.4288 19.7893L15.016 19.588L14.9657 21.5426L15.4019 21.3916L15.4606 19.0259L14.0261 19.5209L13.9506 20.8882C13.9171 21.509 13.7913 21.6013 13.6738 21.6432C13.6403 21.6516 13.5815 21.6684 13.5396 21.6684H13.506L13.4977 22.0459H13.5312H13.5396C13.5731 22.0459 13.6654 22.0459 13.7577 22.0123C13.959 21.9452 14.3114 21.702 14.3617 20.8882L14.4288 19.7893Z" fill="#000000"/>
<path d="M16.7106 20.9889C17.3314 20.7792 17.7508 20.1416 17.7676 19.4034C17.776 19.0175 17.6669 18.7239 17.4572 18.5729C17.2726 18.4387 17.0294 18.4219 16.7525 18.5142C16.1318 18.7239 15.7039 19.3698 15.6871 20.0997C15.6788 20.4856 15.7878 20.7792 15.9975 20.9302C16.1066 21.0057 16.2324 21.0476 16.375 21.0476C16.4757 21.056 16.5931 21.0308 16.7106 20.9889ZM16.1234 19.9738C16.1318 19.4621 16.3834 19.0511 16.7609 18.9252C16.9119 18.8749 17.0461 18.8833 17.1468 18.9504C17.281 19.0427 17.3481 19.2524 17.3397 19.5376C17.3314 20.0493 17.0797 20.4688 16.7106 20.5946C16.5512 20.6533 16.4254 20.6449 16.3247 20.5694C16.1905 20.4688 16.115 20.2591 16.1234 19.9738Z" fill="#000000"/>
<path d="M18.4974 18.38L19.5544 18.0109L19.5628 17.5998L18.078 18.1115L18.0192 20.4856L18.4555 20.3346L18.4974 18.38Z" fill="#000000"/>
<path d="M20.9973 19.4537L21.4335 19.3027L21.4922 16.9287L21.0057 17.0965L20.1165 19.0511L20.1584 17.3901L19.7222 17.5411L19.6635 19.9151L20.15 19.7473L21.0392 17.7927L20.9973 19.4537Z" fill="#000000"/>
<path d="M23.0526 17.7424L23.0274 18.7407L23.4636 18.5897L23.5223 16.224L23.0945 16.375L23.0693 17.323C22.9771 17.3733 22.7925 17.4656 22.5996 17.5411C22.4569 17.5914 22.3563 17.5914 22.2976 17.5495C22.2221 17.4907 22.2221 17.3565 22.2221 17.2559L22.2388 16.677L21.8026 16.828L21.7858 17.5075C21.7858 17.6585 21.811 17.8682 21.962 17.9773C22.0962 18.0696 22.2892 18.078 22.5492 17.9857C22.6918 17.927 22.9099 17.8179 23.0526 17.7424Z" fill="#000000"/>
<path d="M25.4518 15.9556L25.4602 15.5529L23.883 16.0982L23.8243 18.4722L25.4182 17.9186L25.4266 17.4991L24.2605 17.9102L24.2773 17.2978L25.3427 16.9287L25.3511 16.5344L24.2857 16.9035L24.3025 16.3582L25.4518 15.9556Z" fill="#000000"/>
<path d="M26.6765 15.0831C26.0725 15.2929 25.6447 15.9388 25.6279 16.6602C25.6195 17.0629 25.7202 17.3565 25.9299 17.5075C26.0306 17.583 26.1564 17.6166 26.2906 17.6166C26.3913 17.6166 26.5004 17.5998 26.6178 17.5579C27.1463 17.3733 27.5238 16.8784 27.5741 16.2828V16.2324L27.1379 16.3834V16.4002C27.1044 16.6686 26.9785 17.021 26.6094 17.1468C26.4584 17.1971 26.341 17.1887 26.2403 17.1216C26.1145 17.0294 26.039 16.8112 26.0474 16.526C26.0558 16.1401 26.2235 15.6368 26.6681 15.4774C26.8024 15.4271 26.9114 15.4355 26.9953 15.4858C27.0708 15.5278 27.1128 15.6116 27.1295 15.7207L27.1379 15.7543L27.5657 15.6033V15.5781C27.5406 15.3516 27.4483 15.1838 27.3057 15.0915C27.1547 14.9993 26.9282 14.9909 26.6765 15.0831Z" fill="#000000"/>
<path d="M27.8761 14.714L27.8174 17.0797L28.2452 16.9371L28.262 16.1485L28.5472 15.7543L29.1932 16.6099L29.7133 16.4254L28.8409 15.3348L29.7468 14.0681L29.1848 14.261L28.2788 15.5529L28.304 14.563L27.8761 14.714Z" fill="#000000"/>
<path d="M30.7787 13.657C30.1579 13.8751 29.7301 14.5127 29.7133 15.2425C29.7049 15.6284 29.814 15.922 30.0237 16.073C30.1327 16.1485 30.2586 16.1905 30.4012 16.1905C30.5018 16.1905 30.6193 16.1737 30.7367 16.1317C31.3491 15.9136 31.777 15.2845 31.7937 14.5463C31.8021 14.1604 31.6931 13.8668 31.4833 13.7158C31.2988 13.5815 31.0555 13.5564 30.7787 13.657ZM31.3575 14.6721C31.3491 15.1838 31.0975 15.6033 30.7283 15.7291C30.569 15.7794 30.4431 15.7794 30.3425 15.7039C30.2082 15.6116 30.1411 15.3935 30.1495 15.1083C30.1579 14.5966 30.4096 14.1855 30.7871 14.0597C30.9381 14.0094 31.0723 14.0178 31.173 14.0849C31.2988 14.1771 31.3659 14.3869 31.3575 14.6721Z" fill="#000000"/>
<path d="M32.037 15.62L32.4648 15.469L32.5152 13.5144L33.5722 13.1537L33.5806 12.7343L32.0957 13.2544L32.037 15.62Z" fill="#000000"/>
<path d="M35.6945 13.1873C35.7029 12.8014 35.5939 12.5078 35.3842 12.3568C35.1996 12.2226 34.9563 12.2058 34.6795 12.2981C34.0587 12.5162 33.6309 13.1537 33.6141 13.8835C33.6057 14.2694 33.7148 14.563 33.9245 14.714C34.0336 14.7895 34.1594 14.8315 34.302 14.8315C34.4027 14.8315 34.5201 14.8147 34.6376 14.7728C35.2499 14.563 35.6694 13.9255 35.6945 13.1873ZM35.2583 13.3131C35.2499 13.8248 34.9983 14.2443 34.6292 14.3701C34.4698 14.4204 34.3439 14.4204 34.2433 14.3449C34.1091 14.2527 34.0419 14.0429 34.0503 13.7493C34.0587 13.2376 34.3104 12.8265 34.6879 12.6923C34.755 12.6672 34.8137 12.6588 34.8724 12.6588C34.9479 12.6588 35.0151 12.6756 35.0738 12.7175C35.1996 12.8266 35.2667 13.0363 35.2583 13.3131Z" fill="#000000"/>
<path d="M3.85049 28.8744L4.27833 28.7234L4.32866 26.7688L5.22626 26.4584L5.17593 28.413L5.61215 28.262L5.67087 25.888L3.90083 26.5004L3.85049 28.8744Z" fill="#000000"/>
<path d="M7.55834 25.4518C7.42411 25.3595 7.22278 25.3511 6.97112 25.4434L6.03995 25.7705L5.98123 28.1362L6.41745 27.9852L6.44262 27.096L7.01306 26.8946C7.44928 26.7436 7.71772 26.3661 7.7345 25.9132C7.7345 25.695 7.68417 25.5357 7.55834 25.4518ZM7.30667 26.0474C7.29828 26.2823 7.17245 26.45 6.91239 26.5339L6.44262 26.7017L6.4594 26.0138L6.92078 25.8544C7.07178 25.8041 7.17245 25.7957 7.23117 25.846C7.28989 25.8796 7.31506 25.9467 7.30667 26.0474Z" fill="#000000"/>
<path d="M7.94424 27.4567L9.53813 26.903L9.5549 26.4836L8.38885 26.8863L8.39724 26.2739L9.46263 25.9048L9.4794 25.5105L8.40563 25.888L8.42241 25.3427L9.57168 24.9401L9.58007 24.5374L8.00297 25.0827L7.94424 27.4567Z" fill="#000000"/>
<path d="M11.5682 23.8495L10.1337 24.3444L10.1253 24.7219C10.1086 25.3343 9.98273 26.0222 9.82334 26.3913L9.61362 26.4668L9.58846 27.4567L10.0079 27.3141L10.0247 26.7437L11.3333 26.2907L11.3166 26.8611L11.736 26.7101L11.7612 25.7202L11.5263 25.8041L11.5682 23.8495ZM11.1236 24.4116L11.0901 25.9467L10.2931 26.2235C10.4273 25.8544 10.5364 25.2421 10.5448 24.7303V24.6129L11.1236 24.4116Z" fill="#000000"/>
<path d="M11.9289 26.0725L12.3568 25.9215L12.4071 23.9669L13.3047 23.6565L13.2628 25.6111L13.6906 25.4601L13.7493 23.0861L11.9877 23.6985L11.9289 26.0725Z" fill="#000000"/>
<path d="M15.6536 22.6415C15.5194 22.5492 15.3264 22.5408 15.0664 22.6331L14.1352 22.9603L14.0765 25.3259L14.5127 25.1749L14.5379 24.2857L15.1083 24.0844C15.5445 23.9334 15.813 23.5559 15.8298 23.1029C15.8298 22.8848 15.7794 22.7338 15.6536 22.6415ZM15.4019 23.2455C15.3935 23.4804 15.2677 23.6482 15.016 23.732L14.5463 23.8998L14.563 23.2119L15.0244 23.0525C15.1754 23.0022 15.2761 22.9938 15.3348 23.0442C15.3852 23.0693 15.4103 23.1364 15.4019 23.2455Z" fill="#000000"/>
<path d="M16.4841 23.7824L16.5176 22.1298L16.0898 22.2808L16.0311 24.6464L16.5176 24.4787L17.3985 22.5324L17.3649 24.1851L17.7927 24.034L17.8515 21.6684L17.3649 21.8362L16.4841 23.7824Z" fill="#000000"/>
<path d="M19.5292 21.9956L18.6316 22.3059L18.6484 21.3916L18.2206 21.5426L18.1619 23.9082L18.5897 23.7572L18.6149 22.7254L19.5125 22.415L19.4873 23.4468L19.9235 23.2958L19.9822 20.9302L19.546 21.0812L19.5292 21.9956Z" fill="#000000"/>
<path d="M20.7372 22.3059L20.7792 20.6533L20.3513 20.8043L20.2926 23.17L20.7708 23.0022L21.66 21.056L21.6181 22.7086L22.0543 22.5576L22.113 20.192L21.6264 20.3597L20.7372 22.3059Z" fill="#000000"/>
<path d="M23.5811 21.4L23.0609 19.8648L22.4905 20.0577L22.4318 22.4318L22.8428 22.2892L22.8848 20.6617L23.3965 22.0962L23.7404 21.9788L24.3025 20.192L24.2689 21.7942L24.68 21.6516L24.7387 19.2776L24.1683 19.4789L23.5811 21.4Z" fill="#000000"/>
<path d="M25.695 18.942L24.7974 21.6013L25.2504 21.4419L25.4685 20.7624L26.2571 20.494L26.4417 21.0392L26.8947 20.8798L26.1229 18.7994L25.695 18.942ZM26.1564 20.1668L25.6028 20.3597L25.9048 19.4286L26.1564 20.1668Z" fill="#000000"/>
<path d="M26.6094 19.0427L27.2805 18.8078L27.2302 20.7624L27.658 20.6114L27.7084 18.6652L28.3795 18.4303L28.3879 18.0109L26.6178 18.6232L26.6094 19.0427Z" fill="#000000"/>
<path d="M28.4969 20.3262L30.0908 19.7725L30.1076 19.3615L28.9331 19.7641L28.9499 19.1517L30.0153 18.7826L30.0321 18.3884L28.9583 18.7575L28.9751 18.2122L30.1244 17.8179L30.1327 17.4069L28.5556 17.9521L28.4969 20.3262Z" fill="#000000"/>
<path d="M30.7032 18.4974C30.6696 19.1098 30.5438 19.2105 30.4263 19.2524C30.3928 19.2608 30.3341 19.2776 30.2921 19.2776H30.2586L30.2502 19.6551H30.2837H30.2921C30.3341 19.6551 30.418 19.6551 30.5102 19.6215C30.72 19.546 31.0639 19.3111 31.1142 18.4974L31.1813 17.4069L31.7686 17.2055L31.7182 19.1601L32.1545 19.0091L32.2132 16.6435L30.7787 17.1384L30.7032 18.4974Z" fill="#000000"/>
<path d="M34.0839 17.0629C33.958 16.9706 33.7651 16.9623 33.5134 17.0461L32.9933 17.2223L33.0101 16.3415L32.5739 16.4925L32.5152 18.8581L33.4883 18.5226C33.958 18.3632 34.2349 18.0025 34.2433 17.5327C34.2684 17.3146 34.2013 17.1552 34.0839 17.0629ZM33.8238 17.6753C33.8154 17.9102 33.7064 18.0696 33.4715 18.1451L32.9682 18.3212L32.9849 17.625L33.5051 17.4488C33.6057 17.4152 33.6896 17.4152 33.7483 17.4572C33.7987 17.4907 33.8322 17.5746 33.8238 17.6753Z" fill="#000000"/>
<path d="M35.9462 16.7693C35.9127 17.0377 35.7868 17.3901 35.4177 17.5159C35.2667 17.5662 35.1493 17.5579 35.057 17.4907C34.9312 17.3985 34.8557 17.1804 34.864 16.8951C34.8724 16.5093 35.0402 16.0059 35.4848 15.8465C35.619 15.7962 35.7281 15.8046 35.812 15.8549C35.8875 15.8969 35.9294 15.9808 35.9546 16.0898L35.963 16.1234L36.3908 15.9724V15.9472C36.3657 15.7207 36.2734 15.5529 36.1308 15.4606C35.9714 15.36 35.7449 15.3516 35.4932 15.4355C34.8892 15.6452 34.4614 16.2911 34.4446 17.0126C34.4362 17.4152 34.5369 17.7089 34.7466 17.8599C34.8473 17.9354 34.9731 17.9689 35.1073 17.9689C35.208 17.9689 35.317 17.9521 35.4345 17.9102C35.963 17.7256 36.3405 17.2223 36.3908 16.6351V16.5848L35.9546 16.7357L35.9462 16.7693Z" fill="#000000"/>
<path d="M36.4244 15.5865L37.0955 15.3516L37.0452 17.3062L37.473 17.1552L37.5233 15.2006L38.1944 14.9741L38.2028 14.5547L36.4328 15.167L36.4244 15.5865Z" fill="#000000"/>
<path d="M39.8051 15.0832C39.9645 14.9322 40.0651 14.7224 40.0651 14.5295C40.0651 14.3617 40.0232 14.2359 39.9225 14.1604C39.7967 14.0681 39.6037 14.0681 39.3605 14.152L38.379 14.4875L38.3203 16.8532L39.436 16.4673C39.847 16.3247 40.1239 15.9472 40.1406 15.5278C40.1406 15.3684 40.1071 15.2425 40.0232 15.167C39.9561 15.1251 39.889 15.0915 39.8051 15.0832ZM38.7732 15.3097L38.79 14.7392L39.285 14.5714C39.4024 14.5295 39.5199 14.4959 39.587 14.5463C39.6205 14.5714 39.6457 14.6302 39.6373 14.7224C39.6289 14.9322 39.5115 15.058 39.2346 15.1503L38.7732 15.3097ZM38.7481 16.3247L38.7649 15.6704L39.2934 15.4858C39.4108 15.4439 39.5618 15.4019 39.6373 15.4607C39.6792 15.4942 39.7044 15.5613 39.7044 15.662C39.696 15.8969 39.5618 16.0479 39.2598 16.1485L38.7481 16.3247Z" fill="#000000"/>
<path d="M41.4661 13.4221L41.0299 13.5731L40.1322 16.2324L40.5852 16.073L40.8034 15.3935L41.5919 15.1251L41.7765 15.6704L42.2295 15.511L41.4661 13.4221ZM41.4912 14.7895L40.9376 14.9825L41.2396 14.0513L41.4912 14.7895Z" fill="#000000"/>
</svg>