<svg width="27" height="30" viewBox="0 0 27 30" fill="none" xmlns="http://www.w3.org/2000/svg">
<path id="image 4 (Traced)" fill-rule="evenodd" clip-rule="evenodd" d="M5.59014 0.0285398C5.41333 0.0678082 5.27 0.124604 5.04914 0.242892C4.78758 0.382999 4.62661 0.510795 4.04301 1.04167C3.77178 1.28837 3.48216 1.5436 3.39941 1.60884C3.13018 1.82109 2.86265 2.06684 2.57719 2.36412C1.16085 3.83912 0.29468 5.75799 0.0597395 7.94109C-0.188446 10.2474 0.337792 12.7964 1.61764 15.4875C2.89464 18.1726 5.05935 21.1901 7.66 23.9103C9.63439 25.9755 11.4149 27.4022 13.3287 28.4526C15.8434 29.8327 18.3678 30.2977 20.7265 29.8151C22.3082 29.4915 23.8758 28.6571 24.9913 27.545C25.099 27.4376 25.4264 27.1323 25.7189 26.8667C26.0113 26.601 26.323 26.3039 26.4115 26.2064C27.1508 25.3927 27.1934 24.4872 26.54 23.4754C26.2973 23.0994 25.9619 22.7014 25.5578 22.3095C25.2397 22.001 23.9507 20.8473 23.5916 20.5497C22.746 19.8488 22.0102 19.4254 21.3253 19.2455C20.5898 19.0524 19.9123 19.1458 19.2755 19.5283C19.0344 19.6731 18.8272 19.843 18.2009 20.4095C17.7793 20.7909 17.545 21.0189 17.3718 21.2167C16.833 21.8318 16.4237 22.1098 15.9073 22.2113C15.7097 22.2501 15.327 22.2505 15.1113 22.2121C13.7499 21.9699 12.0273 20.5827 9.91623 18.0287C8.46978 16.2788 7.50531 14.6924 7.17878 13.526C7.055 13.0839 7.03722 12.9549 7.03765 12.5018C7.03801 12.1355 7.04286 12.0684 7.07856 11.935C7.18171 11.5498 7.34829 11.2447 7.60913 10.9632C7.80202 10.755 7.95568 10.6266 8.32753 10.3629C8.63496 10.1449 9.47853 9.40365 9.8595 9.01667C10.4656 8.40101 10.7389 7.7647 10.7389 6.96909C10.7389 6.30255 10.5571 5.62815 10.1504 4.78604C9.91162 4.29151 9.65778 3.85705 8.78527 2.4494C8.04041 1.24773 7.40213 0.543435 6.75607 0.210253C6.44937 0.0520776 6.23883 -0.00197434 5.93753 5.4782e-05C5.81316 0.000905081 5.65683 0.0137175 5.59014 0.0285398Z" fill="white"/>
</svg>
