<svg width="77" height="63" viewBox="0 0 77 63" fill="none" xmlns="http://www.w3.org/2000/svg">
<path d="M31.5001 41.7718L31.5001 24.6522L27.2962 24.6522L16.5044 36.1712L16.5044 24.6522L12.3262 24.6522L12.3262 41.7718L16.5044 41.7718L27.2962 30.3261L27.2962 41.7718H31.5001Z" fill="white"/>
<path d="M54.7827 41.8089V37.663H70.799C72.4148 37.663 73.7973 38.2565 74.9467 39.4435C76.1127 40.6135 76.6958 42.0293 76.6958 43.6911C76.6958 45.3359 76.1127 46.7517 74.9467 47.9387C73.7973 49.1087 72.4148 49.6937 70.799 49.6937H58.8555V55.4674H54.7827V45.5224H70.799C71.282 45.5224 71.6985 45.3443 72.0483 44.9882C72.4148 44.6152 72.598 44.1743 72.598 43.6656C72.598 43.1569 72.4148 42.7245 72.0483 42.3685C71.6985 41.9954 71.282 41.8089 70.799 41.8089H54.7827Z" fill="white"/>
<path d="M46.9898 37.663V41.7451H39.1998V55.1935H35.1814V41.7451H27.3914V37.663H46.9898Z" fill="white"/>
<path d="M30.681 26.8435H26.0217L35.9812 9.58694H40.6405L43.2783 14.1476L45.8914 9.58694H50.5506L60.5101 26.8435H55.8755L48.2333 13.6053L40.5912 26.8435H35.9319L40.9363 18.1659L38.3232 13.6053L30.681 26.8435Z" fill="white"/>
<path d="M25.3369 13.3532C25.3369 14.9022 24.7737 16.1984 23.6474 17.2418C22.521 18.269 21.1594 18.7826 19.5623 18.7826H16.4355V25.3369H12.3252V18.7826H9.19838C7.58453 18.7826 6.21444 18.269 5.08811 17.2418C3.97859 16.1984 3.42383 14.9022 3.42383 13.3532V8.21738H7.5341V13.3532C7.5341 14.2989 8.08886 14.7717 9.19838 14.7717H19.5623C20.655 14.7717 21.2014 14.2989 21.2014 13.3532V8.21738H25.3369V13.3532Z" fill="white"/>
<path d="M45.1958 28.1133V23.9674H64.3697V28.1133H45.1958ZM45.1958 41.7718V37.6259H64.3697V41.7718H45.1958ZM45.1958 34.9552V30.7839H64.3697V34.9552H45.1958Z" fill="#D5FF03"/>
<path fill-rule="evenodd" clip-rule="evenodd" d="M72.587 4.1087H4.1087V58.8913H72.587V4.1087ZM0 0V63H76.6957V0H0Z" fill="white"/>
</svg>
