<svg width="96" height="98" viewBox="0 0 96 98" fill="none" xmlns="http://www.w3.org/2000/svg">
<g clip-path="url(#clip0_2159_1273)">
<path d="M88.9391 89.6525H29.9741C28.7919 89.6525 27.9592 88.8177 27.9592 87.6491L25.7612 56.2624C25.7612 55.5946 25.9277 54.9268 26.4273 54.5929L41.2476 42.0716C41.9137 41.5707 42.7629 41.4038 43.4457 41.7377C44.1117 42.0716 44.628 42.7394 44.628 43.5741V51.5878L55.9181 42.0716C56.4176 41.5707 57.2669 41.4038 57.933 41.7377C58.599 42.0716 59.1152 42.5724 59.2818 43.4072L60.7971 52.2556L72.7533 42.0716C73.4194 41.5707 74.2686 41.4038 74.9347 41.7377C75.6174 42.0716 76.117 42.7394 76.117 43.5741V51.5878L87.4071 42.0716C88.0732 41.5707 88.9224 41.4038 89.5885 41.7377C90.2713 42.0716 90.7708 42.7394 90.7708 43.5741V87.4821C91.1039 88.6508 90.1047 89.6525 88.9224 89.6525H88.9391ZM32.0057 85.4787H86.9242V48.2488L75.6341 57.7649C74.9514 58.2658 74.1188 58.4327 73.436 58.0988C72.7699 57.7649 72.2537 57.0971 72.2537 56.2624V48.2488L60.9636 57.7649C60.4641 58.2658 59.6148 58.4327 58.9487 58.0988C58.266 57.7649 57.7664 57.2641 57.5999 56.4293L56.0846 47.581L44.1284 57.7649C43.4623 58.2658 42.6131 58.4327 41.9303 58.0988C41.2642 57.7649 40.748 57.0971 40.748 56.2624V48.2488L29.9741 57.0971L31.989 85.4787H32.0057Z" fill="#F6F6F6"/>
<path d="M29.9741 89.6525H2.69807C2.19851 89.6525 1.51577 89.4856 1.18273 88.9847C0.849691 88.4839 0.516649 87.983 0.68317 87.4821L4.71297 31.0528C4.71297 29.8842 5.72874 29.0494 6.72787 29.0494H25.7612C26.9435 29.0494 27.7761 29.8842 27.7761 31.0528L31.989 87.3152C31.989 87.8161 31.8225 88.4839 31.4895 88.8178C31.1564 89.3186 30.4737 89.6525 29.9741 89.6525ZM4.87949 85.4787H27.7927L23.7463 33.2232H8.75942L4.87949 85.4787Z" fill="#F6F6F6"/>
<path d="M25.7612 33.2232H6.89439C5.7121 33.2232 4.71297 32.2215 4.71297 31.0528V22.7053C4.71297 21.5366 5.72875 20.5349 6.89439 20.5349H25.9277C27.11 20.5349 28.1091 21.5366 28.1091 22.7053V31.0528C27.9426 32.2215 26.9268 33.2232 25.7445 33.2232H25.7612ZM8.90929 29.0494H23.7296V24.8756H8.92595V29.0494H8.90929Z" fill="#F6F6F6"/>
<path d="M15.3203 37.397H11.1074V41.5707H15.3203V37.397Z" fill="#F6F6F6"/>
<path d="M21.5649 43.7411H17.3519V47.9149H21.5649V43.7411Z" fill="#F6F6F6"/>
<path d="M15.3203 49.9182H11.1074V54.092H15.3203V49.9182Z" fill="#F6F6F6"/>
<path d="M21.5649 56.2623H17.3519V60.4361H21.5649V56.2623Z" fill="#F6F6F6"/>
<path d="M15.3203 62.4396H11.1074V66.6133H15.3203V62.4396Z" fill="#F6F6F6"/>
<path d="M21.5649 68.7837H17.3519V72.9575H21.5649V68.7837Z" fill="#F6F6F6"/>
<path d="M46.826 89.6525H38.4001C37.2178 89.6525 36.202 88.6508 36.202 87.4821V68.7836C36.202 67.615 37.2178 66.6133 38.4001 66.6133H46.826C48.0083 66.6133 49.0241 67.615 49.0241 68.7836V87.6491C49.0241 88.6508 48.0083 89.6525 46.826 89.6525ZM40.5982 85.4787H44.8111V70.787H40.5982V85.4787Z" fill="#F6F6F6"/>
<path d="M63.6613 89.6525H55.2353C54.053 89.6525 53.0372 88.6508 53.0372 87.4821V68.7836C53.0372 67.615 54.053 66.6133 55.2353 66.6133H63.6613C64.8436 66.6133 65.8593 67.615 65.8593 68.7836V87.6491C65.8593 88.6508 64.8436 89.6525 63.6613 89.6525ZM57.4334 85.4787H61.6464V70.787H57.4334V85.4787Z" fill="#F6F6F6"/>
<path d="M80.5131 89.6525H72.0872C70.9049 89.6525 69.9058 88.6508 69.9058 87.4821V68.7836C69.9058 67.615 70.9216 66.6133 72.0872 66.6133H80.5131C81.6954 66.6133 82.6946 67.615 82.6946 68.7836V87.6491C82.6946 88.6508 81.6788 89.6525 80.5131 89.6525ZM74.2853 85.4787H78.4982V70.787H74.2853V85.4787Z" fill="#F6F6F6"/>
<path d="M88.9391 98H2.69807C1.51578 98 0.5 96.9983 0.5 95.8297V87.4821C0.5 86.3135 1.51578 85.3118 2.69807 85.3118H88.9391C90.1214 85.3118 91.1372 86.3135 91.1372 87.4821V95.8297C91.1372 96.9983 90.1214 98 88.9391 98ZM4.71297 93.8263H86.9242V89.6525H4.71297V93.8263Z" fill="#F6F6F6"/>
<path d="M29.9742 98C28.7919 98 27.7761 96.9983 27.7761 95.8297V87.4821C27.7761 86.3135 28.7919 85.3118 29.9742 85.3118C31.1564 85.3118 32.1556 86.3135 32.1556 87.4821V95.8297C32.1556 96.9983 31.1398 98 29.9742 98Z" fill="#F6F6F6"/>
<path d="M67.8742 35.3935C63.4947 35.3935 59.6148 32.7223 58.0995 28.8825C57.0837 29.0494 56.2511 29.2164 55.2353 29.2164C51.3554 29.2164 47.6586 27.3799 45.294 24.5417C43.4457 26.2112 40.9145 27.2129 38.3834 27.2129C32.6551 27.2129 27.7761 22.5383 27.7761 16.6951V16.3612C27.11 16.1942 26.4273 16.0273 25.9277 15.6934C24.4124 17.5298 21.8812 18.6985 19.3501 18.6985C14.6376 18.6985 10.9242 15.0256 10.9242 10.3509C10.9242 5.67632 14.6542 2.00341 19.3668 2.00341C20.7156 2.00341 22.0644 2.33731 23.4132 3.00511C24.9286 1.16865 27.4597 0 29.9908 0C33.8707 0 37.2344 2.67121 38.0837 6.34412H38.4167C40.9479 6.34412 43.479 7.34583 45.3273 9.01533C47.6919 6.01022 51.3887 4.34072 55.2686 4.34072C57.6332 4.34072 59.8146 5.00852 61.8295 6.17717C63.8444 3.67291 66.8918 2.33731 70.089 2.33731C72.9531 2.33731 75.4842 3.50596 77.4991 5.34242C79.514 3.50596 82.0451 2.33731 84.9093 2.33731C90.6376 2.33731 95.5167 7.01192 95.5167 12.8552C95.5167 18.6985 90.8041 23.3731 84.9093 23.3731C82.0451 23.3731 79.514 22.2044 77.4991 20.368L77.3326 20.5349C78.1819 22.0375 78.5149 23.707 78.5149 25.3765C78.5149 30.552 73.6358 35.3935 67.9075 35.3935H67.8742ZM59.6148 24.0409C59.9478 24.0409 60.2809 24.2078 60.6306 24.3748C61.1301 24.7087 61.6464 25.2095 61.6464 25.8773C62.1459 28.8825 64.8436 31.2198 67.8742 31.2198C71.4045 31.2198 74.2686 28.3816 74.2686 24.8756C74.2686 23.3731 73.7691 22.0375 72.7533 20.8688C72.4202 20.368 72.2537 19.8671 72.2537 19.1993C72.4202 18.5315 72.7533 18.0307 73.2695 17.6968C74.2853 17.1959 74.9514 16.3612 75.4676 15.3595C75.8006 14.6917 76.4834 14.3578 77.316 14.3578C78.1486 14.3578 78.8313 14.6917 79.1643 15.3595C80.3466 17.3629 82.3615 18.5315 84.7261 18.5315C88.2563 18.5315 91.1205 15.6934 91.1205 12.1874C91.1205 8.68143 88.2563 5.84327 84.7261 5.84327C82.3615 5.84327 80.3466 7.01193 79.1643 9.01533C78.8313 9.68314 78.1486 10.017 77.316 10.017C76.4834 10.017 75.8006 9.68314 75.4676 9.01533C74.2853 7.01193 72.2704 5.84327 69.9058 5.84327C67.3747 5.84327 65.1933 7.34583 64.1775 9.51618C63.8444 10.184 63.3282 10.5179 62.6621 10.6848C61.9961 10.8518 61.3133 10.6848 60.8138 10.184C59.4649 9.01533 57.45 8.18058 55.252 8.18058C51.8883 8.18058 48.8576 10.184 47.5088 13.1891C47.1757 13.8569 46.493 14.3578 45.6604 14.3578C44.8278 14.3578 44.145 14.0239 43.812 13.356C42.6297 11.5196 40.6148 10.3509 38.4167 10.3509C37.9172 10.3509 37.401 10.3509 36.9014 10.5179C36.2187 10.6848 35.5526 10.5179 35.053 10.184C34.5535 9.85009 34.2038 9.18228 34.2038 8.51448V8.34753C34.2038 6.01022 32.3554 4.17376 29.9908 4.17376C28.3089 4.17376 26.6271 5.34242 26.1109 6.84497C25.7778 7.51278 25.2616 8.01363 24.5955 8.18058C23.9294 8.34753 23.0802 8.01363 22.5806 7.51278C21.7314 6.67802 20.7322 6.17717 19.55 6.17717C17.1854 6.17717 15.337 8.01363 15.337 10.3509C15.337 12.6882 17.1854 14.5247 19.55 14.5247C21.2318 14.5247 22.9137 13.356 23.4299 11.8535C23.7629 11.1857 24.2791 10.6848 24.9452 10.5179C25.6113 10.3509 26.4606 10.6848 26.9601 11.1857C27.8094 12.0204 28.8085 12.5213 29.9908 12.5213H30.1573C30.84 12.5213 31.5061 12.8552 31.8392 13.356C32.1722 13.8569 32.3387 14.5247 32.1722 15.1925C32.0057 15.6934 32.0057 16.1942 32.0057 16.6951C32.0057 20.201 34.8698 23.0392 38.4001 23.0392C40.5982 23.0392 42.6131 21.8705 43.7954 20.0341C44.1284 19.3663 44.9776 19.0324 45.6437 19.0324C46.493 19.0324 47.1591 19.5332 47.4921 20.201C48.8409 23.2061 51.8716 25.2095 55.2353 25.2095C56.4176 25.2095 57.5999 25.0426 58.599 24.5417C58.9321 24.0409 59.2818 24.0409 59.6148 24.0409Z" fill="#F6F6F6"/>
</g>
<defs>
<clipPath id="clip0_2159_1273">
<rect width="95" height="98" fill="white" transform="translate(0.5)"/>
</clipPath>
</defs>
</svg>
