<svg width="190" height="156" viewBox="0 0 190 156" fill="none" xmlns="http://www.w3.org/2000/svg">
<path d="M78 103.435L78 61.0439L67.5903 61.0439L40.8679 89.5672L40.8679 61.0439L30.5217 61.0439L30.5217 103.435L40.8679 103.435L67.5903 75.0936L67.5903 103.435H78Z" fill="white"/>
<path d="M135.652 103.527V93.261H175.311C179.312 93.261 182.736 94.7306 185.582 97.6697C188.469 100.567 189.913 104.073 189.913 108.188C189.913 112.26 188.469 115.766 185.582 118.705C182.736 121.603 179.312 123.051 175.311 123.051H145.737V137.348H135.652V112.722H175.311C176.508 112.722 177.539 112.281 178.405 111.4C179.312 110.476 179.766 109.384 179.766 108.125C179.766 106.865 179.312 105.794 178.405 104.913C177.539 103.989 176.508 103.527 175.311 103.527H135.652Z" fill="white"/>
<path d="M116.356 93.261V103.369H97.066V136.67H87.1159V103.369H67.8262V93.261H116.356Z" fill="white"/>
<path d="M75.972 66.4695H64.4348L89.0964 23.739H100.634L107.165 35.0321L113.636 23.739H125.173L149.835 66.4695H138.358L119.435 33.6891L100.512 66.4695H88.9743L101.366 44.9821L94.8955 33.6891L75.972 66.4695Z" fill="white"/>
<path d="M62.7391 33.0651C62.7391 36.9005 61.3446 40.1101 58.5556 42.6939C55.7666 45.2374 52.3948 46.5092 48.4403 46.5092H40.6976V62.739H30.5198V46.5092H22.7772C18.781 46.5092 15.3884 45.2374 12.5994 42.6939C9.85196 40.1101 8.47827 36.9005 8.47827 33.0651V20.3477H18.6561V33.0651C18.6561 35.4067 20.0298 36.5775 22.7772 36.5775H48.4403C51.146 36.5775 52.4989 35.4067 52.4989 33.0651V20.3477H62.7391V33.0651Z" fill="white"/>
<path d="M111.913 69.6136V59.3477H159.391V69.6136H111.913ZM111.913 103.435V93.1687H159.391V103.435H111.913ZM111.913 86.5556V76.2267H159.391V86.5556H111.913Z" fill="#D5FF03"/>
<path fill-rule="evenodd" clip-rule="evenodd" d="M179.739 10.1739H10.1739V145.826H179.739V10.1739ZM0 0V156H189.913V0H0Z" fill="white"/>
</svg>
