<svg width="222" height="182" viewBox="0 0 222 182" fill="none" xmlns="http://www.w3.org/2000/svg">
<path d="M90.9999 120.674L90.9999 71.2174L78.8553 71.2174L47.6792 104.495L47.6792 71.2174L35.6086 71.2174L35.6086 120.674L47.6792 120.674L78.8553 87.6087L78.8553 120.674H90.9999Z" fill="white"/>
<path d="M158.261 120.781V108.804H204.53C209.198 108.804 213.192 110.519 216.513 113.948C219.881 117.328 221.565 121.418 221.565 126.219C221.565 130.97 219.881 135.061 216.513 138.49C213.192 141.87 209.198 143.56 204.53 143.56H170.027V160.239H158.261V131.509H204.53C205.926 131.509 207.129 130.995 208.139 129.966C209.198 128.888 209.727 127.615 209.727 126.145C209.727 124.676 209.198 123.427 208.139 122.398C207.129 121.32 205.926 120.781 204.53 120.781H158.261Z" fill="white"/>
<path d="M135.748 108.804V120.597H113.244V159.448H101.635V120.597H79.1304V108.804H135.748Z" fill="white"/>
<path d="M88.6339 77.5478H75.1738L103.946 27.6957H117.406L125.026 40.8709L132.575 27.6957H146.035L174.807 77.5478H161.418L139.341 39.3041L117.263 77.5478H103.803L118.26 52.4793L110.711 39.3041L88.6339 77.5478Z" fill="white"/>
<path d="M73.1957 38.576C73.1957 43.0507 71.5688 46.7952 68.3149 49.8097C65.0611 52.7771 61.1273 54.2608 56.5137 54.2608H47.4806V73.1956H35.6065V54.2608H26.5734C21.9112 54.2608 17.9531 52.7771 14.6993 49.8097C11.494 46.7952 9.89136 43.0507 9.89136 38.576V23.7391H21.7655V38.576C21.7655 41.3079 23.3681 42.6739 26.5734 42.6739H56.5137C59.6704 42.6739 61.2487 41.3079 61.2487 38.576V23.7391H73.1957V38.576Z" fill="white"/>
<path d="M130.565 81.2161V69.2391H185.956V81.2161H130.565ZM130.565 120.674V108.697H185.956V120.674H130.565ZM130.565 100.982V88.9313H185.956V100.982H130.565Z" fill="#D5FF03"/>
<path fill-rule="evenodd" clip-rule="evenodd" d="M209.696 11.8696H11.8696V170.13H209.696V11.8696ZM0 0V182H221.565V0H0Z" fill="white"/>
</svg>
