<svg width="24" height="25" viewBox="0 0 24 25" fill="none" xmlns="http://www.w3.org/2000/svg">
<g clip-path="url(#clip0_2197_13994)">
<path fill-rule="evenodd" clip-rule="evenodd" d="M1.68706 2.18706C0 3.87413 0 6.58942 0 12.02V12.98C0 18.4106 0 21.1259 1.68706 22.8129C3.37413 24.5 6.08942 24.5 11.52 24.5H12.48C17.9106 24.5 20.6259 24.5 22.3129 22.8129C24 21.1259 24 18.4106 24 12.98V12.02C24 6.58942 24 3.87413 22.3129 2.18706C20.6259 0.5 17.9106 0.5 12.48 0.5H11.52C6.08942 0.5 3.37413 0.5 1.68706 2.18706ZM4.05004 7.80005C4.18004 14.04 7.30001 17.79 12.77 17.79H13.0801V14.22C15.0901 14.42 16.61 15.89 17.22 17.79H20.06C19.28 14.95 17.2299 13.38 15.9499 12.78C17.2299 12.04 19.0299 10.24 19.4599 7.80005H16.8799C16.3199 9.78005 14.6601 11.58 13.0801 11.75V7.80005H10.5V14.72C8.89999 14.32 6.88003 12.38 6.79003 7.80005H4.05004Z" fill="white"/>
</g>
<defs>
<clipPath id="clip0_2197_13994">
<rect width="24" height="24" fill="white" transform="translate(0 0.5)"/>
</clipPath>
</defs>
</svg>
