<svg width="49" height="49" viewBox="0 0 49 49" fill="none" xmlns="http://www.w3.org/2000/svg">
<g clip-path="url(#clip0_2185_13710)">
<path d="M21.7333 29.7111C21.7778 29.9111 21.8 30.0889 21.8 30.2889V35.6667H24.0222V30.5333C23.2 30.4 22.4444 30.1111 21.7333 29.6889V29.7111Z" fill="#D5FF03"/>
<path d="M19.2889 27.2889C18.8889 26.6 18.6 25.8222 18.4445 25H12.7111V27.2222H18.6889C18.8889 27.2222 19.0889 27.2444 19.2667 27.2889H19.2889Z" fill="#D5FF03"/>
<path d="M22.9556 27.1778C22.6445 26.7555 22.2667 26.3778 21.8445 26.0667C22.1333 26.5111 22.5111 26.8889 22.9556 27.1778Z" fill="#D5FF03"/>
<path d="M21.7778 43.7111C21.7778 45.4 20.4 46.7778 18.7111 46.7778H5.28889C3.6 46.7778 2.22222 45.4 2.22222 43.7111V30.3111C2.22222 28.6222 3.6 27.2444 5.28889 27.2444H10.4222V25.0222H5.28889C2.37778 25.0222 0 27.4 0 30.3111V43.7111C0 46.6444 2.37778 49 5.28889 49H18.6889C21.6222 49 23.9778 46.6222 23.9778 43.7111V38H21.7556V43.7111H21.7778Z" fill="#D5FF03"/>
<path d="M12.7333 18.5111C12.7333 16.7333 14.1778 15.3111 15.9333 15.3111H18.3333V13H15.9333C12.8889 13 10.4222 15.4667 10.4222 18.5111V25H12.7333V18.5111Z" fill="#D5FF03"/>
<path d="M29.9111 15.3111C31.6889 15.3111 33.1111 16.7556 33.1111 18.5111V27.8222H35.4222V18.5111C35.4222 15.4667 32.9556 13 29.9111 13H21.2V15.3111H29.9111Z" fill="#D5FF03"/>
<path d="M33.1111 32.4889C33.1111 34.2667 31.6667 35.6889 29.9111 35.6889H24.0222V38H29.9111C32.9556 38 35.4222 35.5334 35.4222 32.4889V30.6667H33.1111V32.4889Z" fill="#D5FF03"/>
<path d="M24 35.6889H21.7778V38H24V35.6889Z" fill="#D5FF03"/>
<path d="M12.7333 25H10.4222V27.2222H12.7333V25Z" fill="#D5FF03"/>
<path d="M42.2444 0H25.1111C21.3778 0 18.3556 3.04444 18.3556 6.77778V13H21.2V6.77778C21.2 4.6 22.9556 2.84444 25.1333 2.84444H42.2667C44.4445 2.84444 46.2 4.6 46.2 6.77778V23.9111C46.2 26.0889 44.4445 27.8444 42.2667 27.8444H35.4444V30.6889H42.2667C46 30.6889 49.0444 27.6444 49.0444 23.9111V6.77778C49.0444 3.04444 46 0 42.2667 0H42.2444Z" fill="#D5FF03"/>
<path d="M18.4667 25C18.6 25.8222 18.8889 26.5778 19.3111 27.2889C20.5333 27.5333 21.5111 28.4889 21.7333 29.7111C22.4222 30.1111 23.2 30.4 24.0222 30.5556V30.3111C24.0222 29.1333 23.6222 28.0667 22.9778 27.1778C22.5333 26.8889 22.1556 26.5111 21.8667 26.0667C20.9778 25.4222 19.9111 25.0222 18.7333 25.0222H18.4889L18.4667 25Z" fill="#D5FF03"/>
<path d="M21.2 13H18.3556V15.3111H21.2V13Z" fill="#D5FF03"/>
<path d="M35.4222 27.8222H33.1111V30.6666H35.4222V27.8222Z" fill="#D5FF03"/>
</g>
<defs>
<clipPath id="clip0_2185_13710">
<rect width="49" height="49" fill="white"/>
</clipPath>
</defs>
</svg>
