<svg width="57" height="42" viewBox="0 0 57 42" fill="none" xmlns="http://www.w3.org/2000/svg">
<g clip-path="url(#clip0_2185_13702)">
<path d="M41.8972 16.6058C41.8972 16.6058 41.7216 16.6058 41.6212 16.5809C41.2449 16.5062 40.994 16.2821 40.7181 16.0332L34.2203 9.98339C32.0376 7.94189 31.7867 4.63069 33.6181 2.29044L33.8941 1.917C34.9478 0.572597 36.6287 -0.149395 38.3347 0.0497755C39.7898 0.199153 41.0693 0.970937 41.8721 2.14106C42.6749 0.970937 43.9544 0.199153 45.4346 0.0497755C47.1406 -0.149395 48.8215 0.572597 49.8752 1.917L50.1511 2.29044C51.9826 4.63069 51.7317 7.94189 49.549 9.98339L43.0763 16.0083C42.7753 16.2821 42.5495 16.5062 42.1481 16.5809C42.0728 16.5809 41.9725 16.6058 41.8721 16.6058H41.8972ZM35.4997 8.61409L41.8972 14.5643L48.2946 8.61409C49.7748 7.2448 49.9504 5.00413 48.696 3.41077L48.4201 3.03733C47.7678 2.19085 46.7141 1.74272 45.6604 1.8672C44.5816 1.99168 43.6784 2.63899 43.2018 3.58505C42.9509 4.08297 42.4742 4.40662 41.8972 4.40662C41.3202 4.40662 40.8435 4.10787 40.5926 3.58505C40.1159 2.61409 39.2128 1.96679 38.134 1.8672C37.0803 1.74272 36.0266 2.19085 35.3743 3.03733L35.0983 3.41077C33.8439 5.00413 34.0446 7.2448 35.4997 8.61409Z" fill="#D5FF03"/>
<path d="M56.6739 27.6846C55.6202 24.6722 52.3336 23.0539 49.298 24.0996L37.4815 27.834C37.6822 26.7137 37.4815 25.668 37.0299 24.7967C36.4027 23.5518 35.3239 22.6805 34.3957 22.2323L21.6761 16.0581C20.7478 15.6099 19.6941 15.5352 18.7157 15.8589L2.68442 21.112C0.602116 21.7842 -0.501757 24.0249 0.200708 26.0664L3.63777 36.0249C4.34023 38.0664 6.57307 39.1369 8.63028 38.4398L13.4974 36.7967V36.8465L15.2786 36.224L17.1351 35.5767C17.5867 35.4274 18.0634 35.4523 18.4899 35.6514L30.7328 41.5767C31.6862 42.0249 32.765 42.0996 33.7685 41.751L53.0863 35.0041C56.1219 33.9585 57.7526 30.6722 56.6989 27.6597L56.6739 27.6846ZM52.3587 33.0124L33.0409 39.7842C32.5893 39.9336 32.0876 39.9087 31.6611 39.7095L19.4181 33.7842C18.4899 33.3361 17.4111 33.2614 16.4076 33.6099L14.526 34.2572L9.80942 21.112L8.05326 21.7344L12.7698 34.8547L7.92782 36.4979C6.99956 36.8216 5.97095 36.3236 5.6699 35.4025L2.23284 25.444C1.90669 24.5228 2.40845 23.5021 3.3618 23.1784L19.393 17.9253C19.8446 17.7759 20.3213 17.8008 20.7478 18.0249L33.4674 24.1992C34.0695 24.4979 34.7469 25.0456 35.1232 25.7925C35.4745 26.4896 35.5999 27.4108 34.9978 28.6556L32.489 29.4523C32.0625 29.6016 31.5858 29.5518 31.1593 29.3527L21.4754 24.6722C20.9485 24.4232 20.2962 24.6224 20.0453 25.1701C19.7945 25.6929 19.9952 26.3402 20.5471 26.5892L30.2311 31.2697C31.1342 31.7178 32.1879 31.7925 33.1413 31.4938L49.9753 26.1909C51.9071 25.5435 53.9894 26.5394 54.6417 28.4564C55.294 30.3734 54.2654 32.4398 52.3587 33.0871V33.0124Z" fill="#D5FF03"/>
</g>
<defs>
<clipPath id="clip0_2185_13702">
<rect width="57" height="42" fill="white"/>
</clipPath>
</defs>
</svg>
