<svg width="58" height="43" viewBox="0 0 58 43" fill="none" xmlns="http://www.w3.org/2000/svg">
<g clip-path="url(#clip0_2185_13736)">
<path d="M37.8127 43C32.7549 43 30.3695 40.6932 28.8455 38.8119C27.1669 39.9541 24.8036 40.7604 24.2735 40.9396C23.8759 41.0739 23.4342 41.0515 23.0587 40.9172C20.5629 39.9541 14.732 36.8859 8.81274 31.4885C3.07016 26.2479 0.265136 20.5593 9.41218e-05 13.6166C-0.132427 9.78695 1.78913 2.10518 10.0938 0.425492C18.045 -1.18701 22.4182 3.74007 23.7655 5.66612C26.7252 2.0156 31.9818 -1.2094 38.0999 0.447888C44.2842 2.12758 46.9788 8.4208 46.9788 11.2427C46.9788 11.8922 46.4708 12.4073 45.8302 12.4073C45.1897 12.4073 44.6817 11.8922 44.6817 11.2427C44.6817 9.29424 42.6277 4.07601 37.5035 2.68747C32.3573 1.27653 27.8516 4.1656 25.3779 7.3458C24.9803 7.86091 24.3177 8.19685 23.6772 8.10726C23.0146 8.08487 22.374 7.74893 22.0207 7.18903C21.0709 5.7781 17.4487 1.32133 10.5355 2.68747C3.75485 4.07601 2.18669 10.3916 2.29712 13.5271C2.54008 19.8203 5.08006 24.9713 10.3146 29.7416C15.991 34.9151 21.4906 37.8265 23.8539 38.7224C24.9803 38.2744 26.6368 37.5354 27.6749 36.8187C26.7914 34.176 26.4601 30.3687 27.962 26.8526C29.4418 23.3588 32.3573 20.7385 36.6421 19.0812C45.6094 15.6099 53.2735 18.9244 57.47 23.2021C57.9117 23.65 58.0884 24.2771 57.978 24.9265C57.8455 25.688 57.3375 26.3375 56.6749 26.651C55.946 26.9869 54.4662 27.9052 52.8759 30.1224C52.3459 30.8838 51.7937 31.7573 51.1973 32.6755C48.4586 37.0203 44.7038 42.9776 37.8127 42.9776V43ZM30.5903 37.289C31.9597 38.9911 33.7267 40.6708 37.8127 40.6708C43.4449 40.6708 46.6695 35.5422 49.2537 31.4437C49.8721 30.4807 50.4464 29.5625 51.0207 28.7562C52.7655 26.3151 54.4662 25.1505 55.6147 24.5906C51.9041 20.9401 45.256 18.2078 37.4814 21.2312C33.7929 22.6646 31.2971 24.8593 30.0823 27.7484C29.0222 30.2791 29.0664 32.989 29.5744 35.0942C32.0481 32.8547 36.9513 28.8682 41.2362 27.1885C41.8104 26.9422 42.4951 27.2557 42.716 27.8604C42.9369 28.4651 42.6497 29.1369 42.0534 29.3609C37.7906 31.0182 32.6886 35.3406 30.5903 37.289Z" fill="#D5FF03"/>
</g>
<defs>
<clipPath id="clip0_2185_13736">
<rect width="58" height="43" fill="white"/>
</clipPath>
</defs>
</svg>
