<svg width="45" height="47" viewBox="0 0 45 47" fill="none" xmlns="http://www.w3.org/2000/svg">
<g clip-path="url(#clip0_2185_13691)">
<path d="M16.1561 17.24L13.5 16.0434L10.8658 17.2622L13.5219 18.4809L16.1561 17.24Z" fill="#D5FF03"/>
<path d="M28.6244 17.3286L31.3024 18.5474L34.0024 17.3508L31.3244 16.132L28.6244 17.3286Z" fill="#D5FF03"/>
<path d="M22.939 19.8548C22.6098 20.0099 22.2147 20.0099 21.8854 19.8548L16.1781 17.2621L13.522 18.4809L20.9854 21.8713C21.4464 22.0707 21.9293 22.1815 22.4342 22.1815C22.939 22.1815 23.4 22.0929 23.839 21.8713L31.3244 18.5474L28.6464 17.3286L22.961 19.8548H22.939Z" fill="#D5FF03"/>
<path d="M2.6561 11.1018L21.3805 2.41537C21.9512 2.14946 22.6098 2.14946 23.1805 2.41537L42.3439 11.2126L31.3024 16.132L33.9805 17.3508L43.8805 12.9411C44.561 12.6308 45 11.9661 45 11.2126C45 10.4592 44.5829 9.79444 43.9024 9.48421L24.0805 0.398868C22.9171 -0.132956 21.6 -0.132956 20.4585 0.398868L1.09756 9.37341C0.417073 9.68364 0 10.3484 0 11.1018C0 11.8553 0.417073 12.52 1.09756 12.8303L10.8439 17.2621L13.5 16.0434L2.6561 11.1018Z" fill="#D5FF03"/>
<path d="M45 23.644C45 22.8906 44.5829 22.2258 43.9024 21.9156L33.9805 17.3729L31.2805 18.5695L42.322 23.644L31.2805 28.5634L28.5805 29.76L22.8951 32.2862C22.5659 32.4413 22.1707 32.4413 21.8415 32.2862L16.1341 29.6935L13.478 28.4748L2.6122 23.5332L13.478 18.5031L10.822 17.2843L1.09756 21.7827C0.417073 22.0929 0 22.7577 0 23.5111C0 24.2645 0.417073 24.9293 1.09756 25.2395L10.8439 29.6714L1.09756 34.1919C0.417073 34.5243 0 35.1669 0 35.9203C0 36.6737 0.417073 37.3385 1.09756 37.6488L20.9634 46.6898C21.4244 46.8892 21.9073 47 22.4122 47C22.9171 47 23.378 46.9114 23.8171 46.6898L43.8805 37.7596C44.561 37.4493 45 36.7845 45 36.0311C45 35.2777 44.5829 34.6129 43.9024 34.3027L33.9805 29.76L43.8805 25.3503C44.561 25.0401 45 24.3753 45 23.6219V23.644ZM42.3439 36.0311L22.9171 44.6733C22.5878 44.8284 22.1927 44.8284 21.8634 44.6733L2.63415 35.9203L13.5 30.8901L20.9634 34.2805C21.4244 34.48 21.9073 34.5908 22.4122 34.5908C22.9171 34.5908 23.378 34.5021 23.8171 34.2805L31.3024 30.9566L42.3439 36.0311Z" fill="#D5FF03"/>
</g>
<defs>
<clipPath id="clip0_2185_13691">
<rect width="45" height="47" fill="white"/>
</clipPath>
</defs>
</svg>
