<svg width="46" height="47" viewBox="0 0 46 47" fill="none" xmlns="http://www.w3.org/2000/svg">
<g clip-path="url(#clip0_2185_13707)">
<path fill-rule="evenodd" clip-rule="evenodd" d="M22.5875 1.9839C22.8551 1.84864 23.1672 1.84864 23.4348 1.9839L43.681 12.804C43.9932 12.9618 44.1716 13.2774 44.1716 13.6381V44.1374C44.1716 44.6558 43.7702 45.0841 43.2574 45.0841H34.0485C33.5356 45.0841 33.1343 45.5124 33.1343 46.0309C33.1343 46.5494 33.5356 46.9777 34.0485 46.9777H43.2574C44.7736 46.9777 46 45.7153 46 44.1599V13.6606C46 12.6012 45.4203 11.6544 44.5284 11.1585L24.2821 0.315791C23.4794 -0.112506 22.5429 -0.112506 21.7402 0.315791L1.47164 11.1585C0.557441 11.6544 0 12.6012 0 13.6606V44.1599C0 45.7153 1.22637 46.9777 2.74261 46.9777H11.9515C12.4644 46.9777 12.8657 46.5494 12.8657 46.0309C12.8657 45.5124 12.4644 45.0841 11.9515 45.0841H2.74261C2.22976 45.0841 1.82841 44.6558 1.82841 44.1374V13.6606C1.82841 13.3 2.02908 12.9844 2.31895 12.8266L22.5875 1.9839ZM16.8124 20.9868H29.0315V24.1201C29.0315 27.5916 26.2889 30.3868 22.922 30.3868C19.555 30.3868 16.8124 27.5916 16.8124 24.1201V20.9868ZM14.984 20.9868C14.984 19.9498 15.809 19.1158 16.8124 19.1158H18.953V14.7201C18.953 14.2016 19.3543 13.7733 19.8672 13.7733C20.38 13.7733 20.7814 14.2016 20.7814 14.7201V19.1158H25.0625V14.7201C25.0625 14.2016 25.4639 13.7733 25.9767 13.7733C26.4896 13.7733 26.8909 14.2016 26.8909 14.7201V19.1158H29.0315C30.0349 19.1158 30.8599 19.9498 30.8599 20.9868V24.1201C30.8599 28.3129 27.7828 31.7393 23.8362 32.2127V46.0534C23.8362 46.5719 23.4348 47.0002 22.922 47.0002C22.4091 47.0002 22.0078 46.5719 22.0078 46.0534V32.2127C18.0611 31.7393 14.984 28.2904 14.984 24.1201V20.9868Z" fill="#D5FF03"/>
</g>
<defs>
<clipPath id="clip0_2185_13707">
<rect width="46" height="47" fill="white"/>
</clipPath>
</defs>
</svg>
