<svg width="57" height="48" viewBox="0 0 57 48" fill="none" xmlns="http://www.w3.org/2000/svg">
<g clip-path="url(#clip0_2185_13739)">
<path d="M15.1092 45.2558C9.30653 45.6607 5.17771 44.2662 3.48155 41.2971C1.78539 38.328 2.63347 34.0319 5.89189 29.1734C9.32885 24.045 14.9753 19.029 21.8046 15.0703C24.7059 13.3833 27.6519 11.9887 30.5532 10.9091C30.2408 10.0768 30.0622 9.19962 30.0399 8.2774C26.8707 9.44704 23.657 10.9316 20.5101 12.776C13.3461 16.9372 7.38719 22.2455 3.72705 27.7113C-0.133955 33.447 -1.02667 38.7554 1.20512 42.6467C3.19142 46.1331 7.43183 48 13.2122 48C13.8817 48 14.5736 47.9775 15.3101 47.9325C20.3093 47.5726 25.9111 45.9756 31.4906 43.3889C30.9326 42.6917 30.5309 41.9044 30.2854 41.0272C25.0407 43.4789 19.796 44.9634 15.1092 45.3008V45.2558Z" fill="#D5FF03"/>
<path d="M33.0529 10.0543C32.8074 9.42455 32.6511 8.74976 32.6511 8.05247C32.6511 7.82754 32.6958 7.60262 32.7181 7.37769C31.8254 7.6476 30.9326 7.9625 30.0399 8.2774C30.0623 9.19962 30.2408 10.0768 30.5532 10.9091C31.379 10.5942 32.2271 10.3018 33.0529 10.0543Z" fill="#D5FF03"/>
<path d="M55.7948 10.8641C54.0094 7.76009 50.4385 5.96066 45.5955 5.60077C45.841 6.36553 45.9749 7.17528 45.9749 8.03001C45.9749 8.11998 45.9749 8.18746 45.9749 8.27743C49.6351 8.63732 52.2686 9.96441 53.5184 12.1912C55.2146 15.1603 54.3665 19.4564 51.1081 24.3149C48.6977 27.9138 45.1715 31.4452 40.9311 34.6167C41.556 35.224 42.0916 35.9663 42.4264 36.7985C46.9346 33.4471 50.684 29.6682 53.2729 25.7995C57.1339 20.0638 58.0266 14.7554 55.7948 10.8641Z" fill="#D5FF03"/>
<path d="M43.3414 8.18744C43.2522 11.089 40.9088 13.4283 38.0074 13.4283C35.7533 13.4283 33.8563 12.0337 33.0529 10.0544C32.2271 10.3243 31.4013 10.5942 30.5533 10.9091C31.7138 13.9231 34.5928 16.0825 38.0074 16.0825C42.3148 16.0825 45.841 12.6186 45.9749 8.2999C45.2831 8.23242 44.5912 8.18744 43.8324 8.18744C43.6762 8.18744 43.4977 8.18744 43.3414 8.18744Z" fill="#D5FF03"/>
<path d="M38.0074 2.65417C40.0607 2.65417 41.8461 3.8463 42.7388 5.57826C43.7432 5.53327 44.7028 5.57826 45.6179 5.62324C44.5912 2.36176 41.5783 0 38.0074 0C33.6108 0 30.0176 3.59888 30.0176 8.05248C30.0176 8.14246 30.0176 8.20993 30.0176 8.29991C30.9103 7.96251 31.8031 7.6701 32.6958 7.40019C33.0305 4.74602 35.2623 2.67666 37.9851 2.67666L38.0074 2.65417Z" fill="#D5FF03"/>
<path d="M42.7165 5.57824C43.0959 6.32051 43.3414 7.15275 43.3414 8.05247C43.3414 8.09746 43.3414 8.14244 43.3414 8.20992C43.4977 8.20992 43.6762 8.20992 43.8324 8.20992C44.5912 8.20992 45.2831 8.25491 45.9749 8.32239C45.9749 8.23241 45.9749 8.16493 45.9749 8.07496C45.9749 7.22023 45.841 6.41048 45.5955 5.64572C44.6805 5.57824 43.7208 5.55575 42.7165 5.60074V5.57824Z" fill="#D5FF03"/>
<path d="M30.0176 39.2952C30.0176 39.88 30.1292 40.4423 30.2631 40.9822C31.0666 40.5998 31.8923 40.2174 32.6958 39.7901C32.6958 39.6326 32.6511 39.4527 32.6511 39.2952C32.6511 37.1809 34.3696 35.4489 36.4675 35.4489C37.3156 35.4489 38.0744 35.7413 38.6993 36.1912C39.4581 35.6738 40.1946 35.1565 40.9088 34.6167C39.7482 33.492 38.186 32.7947 36.4452 32.7947C32.8966 32.7947 29.9953 35.7188 29.9953 39.2952H30.0176Z" fill="#D5FF03"/>
<path d="M40.2839 39.2952C40.2839 41.4095 38.5654 43.1415 36.4675 43.1415C35.4855 43.1415 34.5928 42.7591 33.9232 42.1518C33.0975 42.5792 32.294 42.9841 31.4683 43.3664C32.6511 44.851 34.4366 45.8182 36.4675 45.8182C40.016 45.8182 42.9174 42.8941 42.9174 39.3177C42.9174 38.4405 42.7388 37.5857 42.4264 36.821C41.6899 37.3608 40.9534 37.9006 40.1723 38.418C40.2392 38.7104 40.2839 39.0028 40.2839 39.3177V39.2952Z" fill="#D5FF03"/>
<path d="M40.9311 34.6167C40.2169 35.1565 39.4804 35.6739 38.7216 36.1912C39.4358 36.731 39.9714 37.4958 40.1946 38.3955C40.9534 37.8782 41.7122 37.3383 42.4487 36.7985C42.1139 35.9663 41.5783 35.224 40.9534 34.6167H40.9311Z" fill="#D5FF03"/>
<path d="M32.6958 39.8126C31.8923 40.2399 31.0666 40.6223 30.2631 41.0047C30.5086 41.8819 30.9103 42.6692 31.4683 43.3665C32.294 42.9841 33.0975 42.5792 33.9232 42.1518C33.2537 41.5445 32.8297 40.7348 32.6958 39.8126Z" fill="#D5FF03"/>
</g>
<defs>
<clipPath id="clip0_2185_13739">
<rect width="57" height="48" fill="white"/>
</clipPath>
</defs>
</svg>
