<svg width="31" height="31" viewBox="0 0 31 31" fill="none" xmlns="http://www.w3.org/2000/svg">
<g id="telegram-logo-svgrepo-com 1" clip-path="url(#clip0_34_139)">
<g id="Group">
<path id="Vector" d="M24.9559 29.3644C24.7137 29.3644 24.4732 29.2928 24.2669 29.1529L16.4723 23.8656L12.2917 26.8738C11.9638 27.1095 11.5412 27.1689 11.1605 27.0328C10.7802 26.8963 10.4915 26.5814 10.3884 26.1909L8.28925 18.2357L0.788801 15.3678C0.316617 15.1871 0.0034644 14.7354 2.85514e-05 14.2299C-0.00340729 13.7243 0.303528 13.2683 0.773421 13.0813L29.2929 1.73319C29.4223 1.67822 29.5593 1.64648 29.6974 1.63797C29.7468 1.63503 29.7963 1.63503 29.8456 1.63781C30.1316 1.65482 30.4125 1.77132 30.6317 1.9863C30.6545 2.00855 30.6761 2.03129 30.6965 2.05502C30.8781 2.26248 30.9779 2.51542 30.9968 2.77311C31.0013 2.8379 31.001 2.90351 30.9953 2.96912C30.9914 3.01591 30.9846 3.06254 30.9752 3.10884L26.1612 28.3671C26.0838 28.7728 25.8076 29.1125 25.4261 29.2707C25.2748 29.3335 25.1149 29.3644 24.9559 29.3644ZM17.1567 21.3643L24.0999 26.0739L27.8456 6.42018L14.317 19.4381L17.124 21.3422C17.1352 21.3493 17.146 21.3568 17.1567 21.3643ZM11.3768 20.317L12.3064 23.8396L14.3093 22.3983L11.6866 20.6192C11.5648 20.5368 11.4604 20.434 11.3768 20.317ZM4.60341 14.1986L9.75358 16.1677C10.1225 16.3087 10.401 16.6189 10.5018 17.0008L11.1549 19.4761C11.1849 19.1906 11.3143 18.9219 11.5245 18.7195L24.4153 6.31547L4.60341 14.1986Z" fill="white"/>
</g>
</g>
<defs>
<clipPath id="clip0_34_139">
<rect width="31" height="31" fill="white"/>
</clipPath>
</defs>
</svg>
